<svg width="19" height="17" viewBox="0 0 19 17" fill="none" xmlns="http://www.w3.org/2000/svg"><path d="M8.90196 2.37743L9.36342 2.93555L9.87885 2.37743C11.6926 0.500475 14.5048 0.587775 16.3697 2.37743L16.5011 2.50838C18.3148 4.38534 17.8704 8.13691 16.141 10.0668L15.9135 10.3156L15.6603 10.5829C14.6845 11.597 13.1888 12.9855 11.1732 14.7483L10.0222 15.747C9.62502 16.0891 9.04702 16.0837 8.65583 15.7343L7.23505 14.4581L5.97008 13.3064C4.46646 11.9266 3.33783 10.8468 2.58419 10.0668C0.727272 8.1452 0.369904 4.43003 2.22682 2.50838C4.08374 0.586736 7.04505 0.455786 8.90196 2.37743Z" fill="#F8594E" stroke="#F8594E" stroke-width="1.5"/></svg>